<mxfile host="Electron" modified="2024-02-02T06:01:23.389Z" agent="Mozilla/5.0 (X11; Linux x86_64) AppleWebKit/537.36 (KHTML, like Gecko) draw.io/23.0.2 Chrome/120.0.6099.109 Electron/28.1.0 Safari/537.36" etag="UsYvwX3C5-9yHQTwwrrv" version="23.0.2" type="device">
  <diagram name="Page-1" id="jOF_2WJ57w9wF23wQSpy">
    <mxGraphModel dx="1120" dy="523" grid="1" gridSize="10" guides="1" tooltips="1" connect="1" arrows="1" fold="1" page="1" pageScale="1" pageWidth="827" pageHeight="1169" math="0" shadow="0">
      <root>
        <mxCell id="0" />
        <mxCell id="1" parent="0" />
        <mxCell id="vjq0E9GPHi-Vw9qvG5uc-4" value="" style="edgeStyle=orthogonalEdgeStyle;rounded=0;orthogonalLoop=1;jettySize=auto;html=1;" edge="1" parent="1" source="vjq0E9GPHi-Vw9qvG5uc-1" target="vjq0E9GPHi-Vw9qvG5uc-3">
          <mxGeometry relative="1" as="geometry" />
        </mxCell>
        <mxCell id="vjq0E9GPHi-Vw9qvG5uc-1" value="Ask for database connection,&lt;br&gt;HOST, PORT, USERNAME, and PASSWORD" style="whiteSpace=wrap;html=1;aspect=fixed;" vertex="1" parent="1">
          <mxGeometry x="80" y="160" width="160" height="160" as="geometry" />
        </mxCell>
        <mxCell id="vjq0E9GPHi-Vw9qvG5uc-2" value="&lt;b&gt;&lt;font style=&quot;font-size: 18px;&quot;&gt;SQL Chat bot&lt;br&gt;Website interface&lt;/font&gt;&lt;/b&gt;" style="text;html=1;align=center;verticalAlign=middle;resizable=0;points=[];autosize=1;strokeColor=none;fillColor=none;" vertex="1" parent="1">
          <mxGeometry x="329" y="40" width="170" height="60" as="geometry" />
        </mxCell>
        <mxCell id="vjq0E9GPHi-Vw9qvG5uc-6" value="" style="edgeStyle=orthogonalEdgeStyle;rounded=0;orthogonalLoop=1;jettySize=auto;html=1;" edge="1" parent="1" source="vjq0E9GPHi-Vw9qvG5uc-3" target="vjq0E9GPHi-Vw9qvG5uc-5">
          <mxGeometry relative="1" as="geometry" />
        </mxCell>
        <mxCell id="vjq0E9GPHi-Vw9qvG5uc-3" value="Fetch the list of tables, this needs to be multi select" style="whiteSpace=wrap;html=1;aspect=fixed;" vertex="1" parent="1">
          <mxGeometry x="280" y="160" width="160" height="160" as="geometry" />
        </mxCell>
        <mxCell id="vjq0E9GPHi-Vw9qvG5uc-5" value="For each table, create a blank definition schema, ask user to add description about the column, finally append this to the data definitions." style="whiteSpace=wrap;html=1;aspect=fixed;" vertex="1" parent="1">
          <mxGeometry x="480" y="160" width="160" height="160" as="geometry" />
        </mxCell>
        <mxCell id="vjq0E9GPHi-Vw9qvG5uc-7" value="backend...&lt;br&gt;receive the client id, fetch the connection info, create a new connection, get table info, data definitions, and run the chat completion function." style="whiteSpace=wrap;html=1;aspect=fixed;" vertex="1" parent="1">
          <mxGeometry x="80" y="400" width="160" height="160" as="geometry" />
        </mxCell>
      </root>
    </mxGraphModel>
  </diagram>
</mxfile>
